<?xml version="1.0" encoding="UTF-8" standalone="no"?>
<svg xmlns="http://www.w3.org/2000/svg" width="840" height="320" viewBox="0 0 840 320">
  <defs>
    <marker id="arrow" markerWidth="10" markerHeight="8" refX="5" refY="4" orient="auto" markerUnits="strokeWidth">
      <path d="M 0 8 L 5 0 L 10 8 z" fill="#000000" />
    </marker>
  </defs>

  <style>
    .box { fill: #ffffff; stroke: #000000; stroke-width: 2; }
    .label { font-family: "Courier New", monospace; font-size: 16px; text-anchor: middle; dominant-baseline: middle; }
    .small { font-family: "Courier New", monospace; font-size: 13px; text-anchor: middle; dominant-baseline: middle; }
    .edge { fill: none; stroke: #000000; stroke-width: 2; marker-end: url(#arrow); }
  </style>

  <rect x="0" y="0" width="840" height="320" fill="#ffffff" />

  <path class="edge" d="M 95 125 L 340 60" />
  <path class="edge" d="M 265 125 L 385 60" />
  <path class="edge" d="M 475 125 L 455 60" />
  <path class="edge" d="M 715 125 L 500 60" />

  <path class="edge" d="M 365 250 L 95 170" />
  <path class="edge" d="M 395 250 L 265 170" />
  <path class="edge" d="M 445 250 L 475 170" />
  <path class="edge" d="M 475 250 L 715 170" />

  <rect class="box" x="330" y="12" width="180" height="46" />
  <text class="label" x="420" y="35">@Readonly</text>

  <rect class="box" x="25" y="125" width="140" height="46" />
  <text class="label" x="95" y="148">@Mutable</text>

  <rect class="box" x="190" y="125" width="150" height="46" />
  <text class="label" x="265" y="148">@Immutable</text>

  <rect class="box" x="365" y="125" width="220" height="46" />
  <text class="small" x="475" y="148">@ReceiverDependentMutable</text>

  <rect class="box" x="640" y="125" width="150" height="46" />
  <text class="small" x="715" y="148">@MutabilityLost</text>

  <rect class="box" x="320" y="250" width="200" height="46" />
  <text class="small" x="420" y="273">@MutabilityBottom</text>
</svg>
