<?xml version="1.0" encoding="UTF-8" standalone="no"?>
<svg xmlns="http://www.w3.org/2000/svg" width="690" height="300" viewBox="0 0 690 300">
  <defs>
    <marker id="arrow" markerWidth="10" markerHeight="8" refX="5" refY="4" orient="auto" markerUnits="strokeWidth">
      <path d="M 0 8 L 5 0 L 10 8 z" fill="#000000" />
    </marker>
  </defs>

  <style>
    .box { fill: #ffffff; stroke: #000000; stroke-width: 2; }
    .label { font-family: "Courier New", monospace; font-size: 16px; text-anchor: middle; dominant-baseline: middle; }
    .small { font-family: "Courier New", monospace; font-size: 12px; text-anchor: middle; dominant-baseline: middle; }
    .edge { fill: none; stroke: #000000; stroke-width: 2; marker-end: url(#arrow); }
  </style>

  <rect x="0" y="0" width="690" height="300" fill="#ffffff" />

  <path class="edge" d="M 85 115 L 275 55" />
  <path class="edge" d="M 240 115 L 320 55" />
  <path class="edge" d="M 435 115 L 360 55" />
  <path class="edge" d="M 595 115 L 405 55" />

  <path class="edge" d="M 255 235 L 95 160" />
  <path class="edge" d="M 295 235 L 240 160" />
  <path class="edge" d="M 335 235 L 435 160" />
  <path class="edge" d="M 375 235 L 595 160" />

  <rect class="box" x="255" y="10" width="180" height="44" />
  <text class="label" x="345" y="33">@Readonly</text>

  <rect class="box" x="20" y="115" width="130" height="44" />
  <text class="label" x="85" y="138">@Mutable</text>

  <rect class="box" x="170" y="115" width="140" height="44" />
  <text class="label" x="240" y="138">@Immutable</text>

  <rect class="box" x="320" y="115" width="230" height="44" />
  <text class="small" x="435" y="138">@ReceiverDependentMutable</text>

  <rect class="box" x="545" y="115" width="100" height="44" />
  <text class="label" x="595" y="138">@MutabilityLost</text>

  <rect class="box" x="215" y="235" width="160" height="44" />
  <text class="label" x="295" y="258">@MutabilityBottom</text>
</svg>
